<svg width="102" height="25" viewBox="0 0 102 25" fill="none" xmlns="http://www.w3.org/2000/svg">
<path d="M89.1586 21.6165L91.0697 21.0526V13.4398C91.0697 12.9804 91.0383 12.688 90.9757 12.5626C90.913 12.4164 90.7459 12.2598 90.4744 12.0927L89.096 11.3408L89.19 8.99121C89.545 8.90767 89.8479 8.85546 90.0985 8.83457C92.6256 8.31244 94.4949 8.03048 95.7063 7.98871C95.8942 8.53173 96.0717 9.21051 96.2388 10.025C97.492 9.04343 98.5571 8.36465 99.4343 7.98871H101.22C101.199 8.78236 101.147 9.64911 101.063 10.589C100.98 11.5079 100.875 12.2494 100.75 12.8133C99.9982 12.7715 99.4448 12.7506 99.0897 12.7506C98.2125 12.7506 97.304 12.8028 96.3642 12.9073V20.0188C96.3642 20.4574 96.3955 20.7498 96.4581 20.896C96.5208 21.0422 96.6879 21.1988 96.9594 21.3659L98.8391 22.3684L98.7138 24.5927H89.3153L89.1586 21.6165Z" fill="#0F0F0F"/>
<path d="M80.2429 24.9687C77.7993 24.9687 75.9091 24.2272 74.5724 22.7443C73.2566 21.2615 72.5988 19.2147 72.5988 16.604C72.5988 14.7869 72.9225 13.231 73.5699 11.9361C74.2174 10.6203 75.1363 9.61777 76.3268 8.92855C77.5173 8.23933 78.9062 7.89471 80.4935 7.89471C82.8536 7.89471 84.6602 8.64659 85.9133 10.1504C87.1873 11.6541 87.793 13.7949 87.7303 16.5727L78.2065 18.327C78.4989 19.2042 78.9062 19.8517 79.4283 20.2694C79.9714 20.6662 80.6815 20.8646 81.5587 20.8646C82.1643 20.8646 82.8849 20.7811 83.7203 20.614C84.5557 20.426 85.4016 20.1754 86.2579 19.8621L86.9785 22.9636C86.2057 23.5484 85.2032 24.0288 83.9709 24.4047C82.7387 24.7807 81.496 24.9687 80.2429 24.9687ZM82.5925 13.9411C82.5507 13.1474 82.321 12.5731 81.9033 12.218C81.5064 11.8421 80.9425 11.6541 80.2115 11.6541C79.6059 11.6541 79.0315 11.7377 78.4885 11.9047C78.0499 12.9281 77.8515 14.0351 77.8932 15.2255L82.5925 13.9411Z" fill="#0F0F0F"/>
<path d="M63.3672 1.40978L68.693 0L69.9775 4.76191L64.683 6.20301L63.3672 1.40978ZM62.0514 21.7105L64.2444 21.0526V13.4399C64.2444 12.9804 64.2026 12.688 64.1191 12.5627C64.0565 12.4165 63.8789 12.2598 63.5865 12.0927L62.2081 11.3409L62.3647 8.99123C64.0982 8.65706 65.4349 8.41688 66.3747 8.27068C67.3355 8.10359 68.2127 8.00961 69.0063 7.98872C69.2778 8.8868 69.4449 9.55514 69.5076 9.99374V20.0188C69.5076 20.4574 69.5389 20.7498 69.6016 20.896C69.6642 21.0422 69.8417 21.1988 70.1341 21.3659L71.6692 22.2431L71.5439 24.5927H62.1454L62.0514 21.7105Z" fill="#0F0F0F"/>
<path d="M51.3432 21.7106L53.5362 21.0527V6.04639C53.5362 5.58691 53.4944 5.29451 53.4109 5.1692C53.3482 5.023 53.1707 4.86635 52.8783 4.69927L51.4999 3.97872L51.6565 1.59777C52.0742 1.51422 52.398 1.46201 52.6277 1.44112C55.3846 0.939871 57.3061 0.668359 58.3921 0.626587C58.601 1.10695 58.7367 1.64998 58.7994 2.25566V20.0188C58.7994 20.4574 58.8307 20.7498 58.8934 20.896C58.956 21.0422 59.1335 21.1989 59.4259 21.3659L60.961 22.2431L60.8357 24.5928H51.4372L51.3432 21.7106Z" fill="#0F0F0F"/>
<path d="M42.9483 24.9687C40.5047 24.9687 38.6146 24.2272 37.2779 22.7443C35.9621 21.2615 35.3042 19.2147 35.3042 16.604C35.3042 14.7869 35.6279 13.231 36.2754 11.9361C36.9228 10.6203 37.8418 9.61777 39.0323 8.92855C40.2227 8.23933 41.6116 7.89471 43.1989 7.89471C45.559 7.89471 47.3656 8.64659 48.6187 10.1504C49.8928 11.6541 50.4984 13.7949 50.4358 16.5727L40.912 18.327C41.2044 19.2042 41.6116 19.8517 42.1338 20.2694C42.6768 20.6662 43.3869 20.8646 44.2641 20.8646C44.8698 20.8646 45.5903 20.7811 46.4257 20.614C47.2612 20.426 48.107 20.1754 48.9633 19.8621L49.6839 22.9636C48.9111 23.5484 47.9086 24.0288 46.6764 24.4047C45.4441 24.7807 44.2014 24.9687 42.9483 24.9687ZM45.2979 13.9411C45.2562 13.1474 45.0264 12.5731 44.6087 12.218C44.2119 11.8421 43.648 11.6541 42.917 11.6541C42.3113 11.6541 41.7369 11.7377 41.1939 11.9047C40.7553 12.9281 40.5569 14.0351 40.5987 15.2255L45.2979 13.9411Z" fill="#0F0F0F"/>
<path d="M28.758 25C26.9201 25 25.5625 24.5509 24.6853 23.6529C23.8081 22.7339 23.3695 21.345 23.3695 19.4862V11.8734H21.1765V9.58645L26.8156 4.44861L28.6327 4.66791V8.20801H33.8958V11.9047H28.6327V18.3584C28.6327 19.3609 28.7684 20.0292 29.0399 20.3634C29.3323 20.6976 29.8858 20.8646 30.7003 20.8646C31.3896 20.8646 32.3503 20.7707 33.5825 20.5827L33.9585 23.7782C33.2066 24.1332 32.3607 24.4256 31.4209 24.6554C30.5019 24.8851 29.6143 25 28.758 25Z" fill="#0F0F0F"/>
<path d="M0 21.8045L0.971178 21.2093L8.30201 3.44612L13.6278 2.9762L19.8935 19.8935C20.1023 20.4365 20.2485 20.7916 20.3321 20.9587C20.4156 21.1257 20.5723 21.3555 20.802 21.6479L21.3659 22.3684L21.1779 24.5927H12.3747L12.0614 21.6165L14.2857 21.0526L13.2832 17.8885L6.92356 17.9825L6.23434 19.9561C6.17168 20.1441 6.14035 20.3008 6.14035 20.4261C6.14035 20.5723 6.16124 20.6871 6.20301 20.7707C6.26567 20.8333 6.35965 20.8856 6.48496 20.9273L8.64662 21.8358L8.33333 24.5927H0.125313L0 21.8045ZM10.2444 8.33334L8.17669 14.3484L12.218 14.5363L10.2444 8.33334Z" fill="#0F0F0F"/>
</svg>